<svg id="Layer_1" data-name="Layer 1" xmlns="http://www.w3.org/2000/svg" xmlns:xlink="http://www.w3.org/1999/xlink" viewBox="0 0 756.8 756.8"><defs><style>.cls-1{fill:url(#New_Gradient_Swatch_1);}</style><linearGradient id="New_Gradient_Swatch_1" x1="592.8245" y1="622.08438" x2="163.95903" y2="193.2189" gradientUnits="userSpaceOnUse"><stop offset="0" stop-color="#008c33"/><stop offset="1" stop-color="#12b942"/></linearGradient></defs><path class="cls-1" d="M485.216,581.06415a106.96442,106.96442,0,0,1-213.63206,0H153.329a73.18511,73.18511,0,0,1-5.74095-146.15324V305.20726c0-127.50185,103.32281-230.80349,230.81195-230.80349,127.4903,0,230.812,103.326,230.812,230.80349V434.91142a73.18485,73.18485,0,0,1-5.741,146.15273Zm-56.45923,0H328.0432a50.67105,50.67105,0,0,0,100.7136,0Zm174.80205-90.073a50.61411,50.61411,0,0,1-50.6425-50.68566V305.20726a174.51635,174.51635,0,0,0-349.0327,0V440.30553a50.69126,50.69126,0,0,1-50.64255,50.68566,16.88887,16.88887,0,1,0,.0879,33.77736H603.471a16.88887,16.88887,0,1,0,.08787-33.77736Z"/></svg>