<svg id="Layer_1" data-name="Layer 1" xmlns="http://www.w3.org/2000/svg" xmlns:xlink="http://www.w3.org/1999/xlink" viewBox="0 0 756.8 756.8"><defs><style>.cls-1{fill:url(#New_Gradient_Swatch_1);}.cls-2{fill:url(#New_Gradient_Swatch_1-2);}</style><linearGradient id="New_Gradient_Swatch_1" x1="566.09988" y1="584.43806" x2="154.02376" y2="172.36194" gradientUnits="userSpaceOnUse"><stop offset="0" stop-color="#008c33"/><stop offset="1" stop-color="#12b942"/></linearGradient><linearGradient id="New_Gradient_Swatch_1-2" x1="458.26032" y1="476.5985" x2="261.86331" y2="280.2015" xlink:href="#New_Gradient_Swatch_1"/></defs><path class="cls-1" d="M360.06182,669.78182C199.13608,669.78182,68.68,539.32574,68.68,378.4S199.13608,87.01818,360.06182,87.01818,651.44364,217.47426,651.44364,378.4,520.98756,669.78182,360.06182,669.78182Zm0-529.78513c-131.66652,0-238.40331,106.73679-238.40331,238.40331S228.3953,616.80331,360.06182,616.80331,598.46512,510.06649,598.46512,378.4,491.72831,139.99669,360.06182,139.99669Z"/><path class="cls-2" d="M413.04033,510.84628h0a26.48931,26.48931,0,0,1-23.57545-17.218l-63.8391-166.61742L275.2962,394.29356a26.48927,26.48927,0,0,1-21.19141,10.5957H201.12628a26.48926,26.48926,0,0,1,0-52.97852h39.73389l71.521-95.36132a26.41912,26.41912,0,0,1,46.09133,6.35742L416.484,417.869l26.48926-51.654a26.48921,26.48921,0,0,1,23.04562-14.3042h52.97852a26.48926,26.48926,0,0,1,0,52.97852H482.4422l-45.8264,91.388A26.48928,26.48928,0,0,1,413.04033,510.84628Z"/></svg>