<svg id="Layer_1" data-name="Layer 1" xmlns="http://www.w3.org/2000/svg" viewBox="0 0 33 33.2"><defs><style>.cls-1{fill:#fff;fill-rule:evenodd;}</style></defs><path class="cls-1" d="M3,0A3,3,0,0,0,0,3V27a3,3,0,0,0,3,3H20a1,1,0,0,0,0-2H3a1,1,0,0,1-1-1V3A1,1,0,0,1,3,2H27a1,1,0,0,1,1,1V15a1,1,0,0,0,2,0V3a3,3,0,0,0-3-3ZM30.7321,31.8564a3,3,0,0,0,1.098-4.0981l-5-8.6602a.99958.99958,0,0,0-.4228-.3964l-3.232-1.5981a1.00009,1.00009,0,0,0-1.4412.832l-.232,3.5981a1.00036,1.00036,0,0,0,.1319.5644l5,8.6602A3,3,0,0,0,30.7321,31.8564Zm-.634-3.0981a1,1,0,1,1-1.7321,1Zm-1-1.732-1.7321,1-3.8486-6.666.116-1.799,1.6161.799ZM8,8a1,1,0,0,0,0,2H22a1,1,0,0,0,0-2ZM7,15a1,1,0,0,1,1-1H18a1,1,0,0,1,0,2H8A1,1,0,0,1,7,15Zm1,5a1,1,0,0,0,0,2h6a1,1,0,0,0,0-2Z"/></svg>