<svg id="Layer_1" data-name="Layer 1" xmlns="http://www.w3.org/2000/svg" xmlns:xlink="http://www.w3.org/1999/xlink" viewBox="0 0 756.8 756.8"><defs><style>.cls-1{fill:url(#New_Gradient_Swatch_1);}.cls-2{fill:url(#New_Gradient_Swatch_1-2);}.cls-3{fill:url(#New_Gradient_Swatch_1-3);}.cls-4{fill:url(#New_Gradient_Swatch_1-4);}</style><linearGradient id="New_Gradient_Swatch_1" x1="286.61378" y1="593.63341" x2="146.92657" y2="453.94619" gradientUnits="userSpaceOnUse"><stop offset="0" stop-color="#008c33"/><stop offset="1" stop-color="#12b942"/></linearGradient><linearGradient id="New_Gradient_Swatch_1-2" x1="609.87343" y1="270.37376" x2="470.18622" y2="130.68654" xlink:href="#New_Gradient_Swatch_1"/><linearGradient id="New_Gradient_Swatch_1-3" x1="602.56796" y1="538.08285" x2="473.28042" y2="408.79531" xlink:href="#New_Gradient_Swatch_1"/><linearGradient id="New_Gradient_Swatch_1-4" x1="283.4874" y1="315.55673" x2="154.19991" y2="186.26925" xlink:href="#New_Gradient_Swatch_1"/></defs><path class="cls-1" d="M216.77018,622.56357a98.77378,98.77378,0,1,0-98.77378-98.77378A98.77377,98.77377,0,0,0,216.77018,622.56357Zm0-143.67095A44.89718,44.89718,0,1,1,171.873,523.78979,44.89718,44.89718,0,0,1,216.77018,478.89262Z"/><path class="cls-2" d="M638.8036,200.53015a98.77378,98.77378,0,1,0-98.77378,98.77378A98.77377,98.77377,0,0,0,638.8036,200.53015Zm-143.67095,0a44.89717,44.89717,0,1,1,44.89717,44.89718A44.89719,44.89719,0,0,1,495.13265,200.53015Z"/><path class="cls-3" d="M377.32248,542.82622,476.09626,641.6l38.07281-38.07278L461.37,550.7281h87.63927A98.77375,98.77375,0,0,0,647.783,451.95432V353.18054h-53.8766v98.77378a44.89718,44.89718,0,0,1-44.89717,44.89717H461.37l52.79908-52.79908-38.07278-38.07282-98.77378,98.77378a26.8608,26.8608,0,0,0-.16952,38.03188A.14035.14035,0,0,0,377.32248,542.82622Z"/><path class="cls-4" d="M109.017,272.36563v98.77378h53.8766V272.36563a44.89717,44.89717,0,0,1,44.89717-44.89717H295.43L242.631,280.26754l38.07282,38.07282,98.77378-98.77378a26.93829,26.93829,0,0,0,0-38.0728L280.70378,82.72,242.631,120.7928l52.799,52.799H207.79074A98.77378,98.77378,0,0,0,109.017,272.36563Z"/></svg>