<svg id="Layer_1" data-name="Layer 1" xmlns="http://www.w3.org/2000/svg" viewBox="0 0 100 87.84"><defs><style>.cls-1{fill:#fff;}</style></defs><path class="cls-1" d="M75.1064,22.05v-.1a.60123.60123,0,0,0-.1-.4v-.1c-.1-.2-.1-.3-.2-.5a.09794.09794,0,0,0-.1-.1l-.2-.2-.1-.1-.1-.1h-.1a1.77675,1.77675,0,0,0-1-.4h-.6c-.2,0-.3.1-.5.1h0l-52.3,21.9a2.07165,2.07165,0,0,0-1.3,1.8,2.221,2.221,0,0,0,1,2l16,9.5v12.7a2.1206,2.1206,0,0,0,1.2,1.9,2.91986,2.91986,0,0,0,.9.2,2.38933,2.38933,0,0,0,1.4-.5l8.5-7.2,12.5,7.4a2.01587,2.01587,0,0,0,1.1.3,1.88394,1.88394,0,0,0,.8-.2,2.53912,2.53912,0,0,0,1.3-1.4l11.8-46h0A.74947.74947,0,0,0,75.1064,22.05Zm-12.7,6.8-24.9,22.7-12.1-7.2Zm-22.6,34.6v-5.5l3.8,2.3Zm20,1.3-18.4-10.9,27.7-25.3Z"/></svg>