<svg id="Layer_1" data-name="Layer 1" xmlns="http://www.w3.org/2000/svg" xmlns:xlink="http://www.w3.org/1999/xlink" viewBox="0 0 41.52 40"><defs><style>.cls-1{fill:url(#linear-gradient);}.cls-2{fill:url(#linear-gradient-2);}.cls-3{fill:url(#linear-gradient-3);}.cls-4{fill:url(#linear-gradient-4);}.cls-5{fill:url(#linear-gradient-5);}.cls-6{fill:url(#linear-gradient-6);}.cls-7{fill:url(#linear-gradient-7);}.cls-8{fill:url(#linear-gradient-8);}.cls-9{fill:url(#linear-gradient-9);}.cls-10{fill:url(#linear-gradient-10);}.cls-11{fill:url(#linear-gradient-11);}.cls-12{fill:url(#linear-gradient-12);}</style><linearGradient id="linear-gradient" x1="14.11316" y1="6.22932" x2="26.75713" y2="6.22932" gradientUnits="userSpaceOnUse"><stop offset="0" stop-color="#1cea0d"/><stop offset="1" stop-color="#00ad65"/></linearGradient><linearGradient id="linear-gradient-2" x1="9.13947" y1="16.0269" x2="19.56625" y2="16.0269" xlink:href="#linear-gradient"/><linearGradient id="linear-gradient-3" x1="9.13947" y1="24.95558" x2="19.56625" y2="24.95558" xlink:href="#linear-gradient"/><linearGradient id="linear-gradient-4" x1="9.13947" y1="33.88425" x2="19.56625" y2="33.88425" xlink:href="#linear-gradient"/><linearGradient id="linear-gradient-5" x1="21.30404" y1="16.0269" x2="31.73082" y2="16.0269" xlink:href="#linear-gradient"/><linearGradient id="linear-gradient-6" x1="21.30404" y1="24.95558" x2="31.73082" y2="24.95558" xlink:href="#linear-gradient"/><linearGradient id="linear-gradient-7" x1="21.30404" y1="33.88425" x2="31.73082" y2="33.88425" xlink:href="#linear-gradient"/><linearGradient id="linear-gradient-8" x1="16.57005" y1="5.24057" x2="24.30025" y2="5.24057" xlink:href="#linear-gradient"/><linearGradient id="linear-gradient-9" x1="16.57005" y1="7.45776" x2="24.30025" y2="7.45776" xlink:href="#linear-gradient"/><linearGradient id="linear-gradient-10" x1="32.86938" y1="21.59983" x2="37.903" y2="21.59983" xlink:href="#linear-gradient"/><linearGradient id="linear-gradient-11" x1="3.14707" y1="11.20301" x2="8.24061" y2="11.20301" xlink:href="#linear-gradient"/><linearGradient id="linear-gradient-12" x1="3.14707" y1="30.67832" x2="8.24061" y2="30.67832" xlink:href="#linear-gradient"/></defs><path class="cls-1" d="M14.7124,10.09442H26.15789a.56615.56615,0,0,0,.59924-.59924V2.96346a.56615.56615,0,0,0-.59924-.59924H14.7124a.56615.56615,0,0,0-.59924.59924V9.49518A.56615.56615,0,0,0,14.7124,10.09442Zm.59924-6.53172h10.247V8.89594h-10.247Z"/><path class="cls-2" d="M18.967,12.791H9.73871a.56615.56615,0,0,0-.59924.59924v5.27331a.56614.56614,0,0,0,.59924.59924H18.967a.56614.56614,0,0,0,.59924-.59924V13.39024A.56615.56615,0,0,0,18.967,12.791Zm-.59924,5.27331H10.338V13.98948h8.02982Z"/><path class="cls-3" d="M18.967,21.71968H9.73871a.56615.56615,0,0,0-.59924.59924v5.27331a.56614.56614,0,0,0,.59924.59924H18.967a.56614.56614,0,0,0,.59924-.59924V22.31892A.56614.56614,0,0,0,18.967,21.71968ZM18.36777,26.993H10.338V22.91816h8.02982Z"/><path class="cls-4" d="M18.967,30.64836H9.73871a.56614.56614,0,0,0-.59924.59924v5.27331a.56615.56615,0,0,0,.59924.59924H18.967a.56615.56615,0,0,0,.59924-.59924V31.2476A.56614.56614,0,0,0,18.967,30.64836Zm-.59924,5.27331H10.338V31.84684h8.02982Z"/><path class="cls-5" d="M31.13158,12.791H21.90329a.56615.56615,0,0,0-.59925.59924v5.27331a.56615.56615,0,0,0,.59925.59924h9.22829a.56614.56614,0,0,0,.59924-.59924V13.39024A.56614.56614,0,0,0,31.13158,12.791Zm-.59924,5.27331H22.50253V13.98948h8.02981Z"/><path class="cls-6" d="M31.13158,21.71968H21.90329a.56615.56615,0,0,0-.59925.59924v5.27331a.56615.56615,0,0,0,.59925.59924h9.22829a.56614.56614,0,0,0,.59924-.59924V22.31892A.56614.56614,0,0,0,31.13158,21.71968ZM30.53234,26.993H22.50253V22.91816h8.02981Z"/><path class="cls-7" d="M31.13158,30.64836H21.90329a.56615.56615,0,0,0-.59925.59924v5.27331a.56615.56615,0,0,0,.59925.59924h9.22829a.56614.56614,0,0,0,.59924-.59924V31.2476A.56614.56614,0,0,0,31.13158,30.64836Zm-.59924,5.27331H22.50253V31.84684h8.02981Z"/><path class="cls-8" d="M23.701,4.64133H17.16929a.56614.56614,0,0,0-.59924.59924.56614.56614,0,0,0,.59924.59924H23.701a.56614.56614,0,0,0,.59924-.59924A.56615.56615,0,0,0,23.701,4.64133Z"/><path class="cls-9" d="M23.701,6.85852H17.16929a.59924.59924,0,1,0,0,1.19848H23.701a.59924.59924,0,1,0,0-1.19848Z"/><path class="cls-10" d="M37.30376,15.06811H33.88809a.59924.59924,0,0,0,0,1.19848h2.81643v8.56914H34.84687l.95879-.95878a.59322.59322,0,0,0-.83894-.83894L32.98923,25.0155c-.05993.05992-.05993.11985-.11985.17977v.2397a.22016.22016,0,0,0,.05992.17977h0c0,.05992.05993.11985.11985.17977h0l2.15726,2.15726a.57927.57927,0,0,0,.83894,0,.57925.57925,0,0,0,0-.83893l-1.13856-1.13856h2.397A.56615.56615,0,0,0,37.903,25.375V15.66735A.56615.56615,0,0,0,37.30376,15.06811Z"/><path class="cls-11" d="M8.18069,14.82842h0c-.05993-.11985-.05993-.17977-.11985-.2397L6.08335,12.61123a.59322.59322,0,0,0-.83894.83893l.95878.95879H4.34555V5.83981H7.162a.56614.56614,0,0,0,.59924-.59924A.56615.56615,0,0,0,7.162,4.64133H3.74631a.56614.56614,0,0,0-.59924.59924v9.76762a.56614.56614,0,0,0,.59924.59924H6.20319L5.06464,16.746a.57925.57925,0,0,0,0,.83893.64732.64732,0,0,0,.41947.17977.64729.64729,0,0,0,.41946-.17977l2.15727-2.15726h0c.05992-.05993.05992-.11985.11985-.17978h0c0-.05992.05992-.11984.05992-.17977v-.05992A.22014.22014,0,0,0,8.18069,14.82842Z"/><path class="cls-12" d="M8.24061,34.42357V34.2438c0-.05992-.05992-.11985-.11985-.17977L6.14327,32.08654a.59322.59322,0,0,0-.83894.83893l.95879.95879H4.34555V25.31512H7.162a.59924.59924,0,1,0,0-1.19848H3.74631a.56614.56614,0,0,0-.59924.59924v9.76761a.56614.56614,0,0,0,.59924.59924H6.20319L5.06464,36.22129a.57926.57926,0,0,0,0,.83894.64732.64732,0,0,0,.41947.17977.64729.64729,0,0,0,.41946-.17977L8.06084,34.903h0c.05992-.05992.05992-.11984.11985-.17977h0c0-.05992.05992-.11985.05992-.17977Z"/></svg>