<svg id="Layer_1" data-name="Layer 1" xmlns="http://www.w3.org/2000/svg" xmlns:xlink="http://www.w3.org/1999/xlink" viewBox="0 0 756.8 756.8"><defs><style>.cls-1{fill:url(#New_Gradient_Swatch_1);}.cls-2{fill:url(#New_Gradient_Swatch_1-2);}</style><linearGradient id="New_Gradient_Swatch_1" x1="576.10097" y1="569.45338" x2="179.68951" y2="173.04193" gradientUnits="userSpaceOnUse"><stop offset="0" stop-color="#008c33"/><stop offset="1" stop-color="#12b942"/></linearGradient><linearGradient id="New_Gradient_Swatch_1-2" x1="452.08011" y1="445.25304" x2="304.37621" y2="297.54914" xlink:href="#New_Gradient_Swatch_1"/></defs><path class="cls-1" d="M122.08793,416.89345a37.023,37.023,0,0,0-10.03085,48.6344l52.03883,89.48736a37.631,37.631,0,0,0,19.75774,16.53571,34.22661,34.22661,0,0,0,27.53925-2.6141l46.87142-21.39913a234.17521,234.17521,0,0,0,25.41148,14.7119L288.47846,614.41a23.39905,23.39905,0,0,0,.36476,2.55329,37.20537,37.20537,0,0,0,35.8679,30.39652H428.424a36.4758,36.4758,0,0,0,36.4758-33.67935l4.68109-51.37009a217.15411,217.15411,0,0,0,25.59386-14.77271l47.35778,21.82468,1.15508.48635a37.20536,37.20536,0,0,0,45.95952-15.62381l51.4309-88.51464a37.023,37.023,0,0,0-9.72687-48.63443L591.7749,386.9225a155.63,155.63,0,0,0,.79034-15.68461,148.02093,148.02093,0,0,0-.79029-15.13748l42.55512-30.39651.48635-.36477a37.08374,37.08374,0,0,0,9.90925-48.63443l-53.194-89.18335a35.13838,35.13838,0,0,0-47.601-13.9824l-46.62824,21.39914a235.27138,235.27138,0,0,0-25.4723-14.71191l-4.74185-52.16043a23.70938,23.70938,0,0,0-.36474-2.6141A37.20533,37.20533,0,0,0,430.795,95.05514H327.14283A36.47582,36.47582,0,0,0,290.667,128.73448L285.98594,180.287a216.72992,216.72992,0,0,0-25.59386,14.65112L213.15589,173.235l-1.15507-.48634a37.20533,37.20533,0,0,0-45.95953,15.6238l-51.4309,88.39307a37.14453,37.14453,0,0,0,9.84847,48.63443l.48634.36476,42.55513,30.39652A148.00585,148.00585,0,0,0,166.71,371.2987a95.39811,95.39811,0,0,0,.72951,14.77271l-44.37891,30.15333Zm85.11025.97269a24.3172,24.3172,0,0,0,10.3956-23.64849,159.09436,159.09436,0,0,1-2.37092-22.97976,159.76452,159.76452,0,0,1,2.18855-23.10135,24.31725,24.31725,0,0,0-9.97006-23.28372L161.725,292.207l40.9745-70.51993,50.33663,23.16215A24.31724,24.31724,0,0,0,278.63,241.56634a165.84312,165.84312,0,0,1,40.00183-22.97977,24.31725,24.31725,0,0,0,14.65112-20.12249l4.985-55.0177h81.40189l4.985,55.0177A24.3172,24.3172,0,0,0,439.18439,218.769a192.71384,192.71384,0,0,1,40.79212,23.64849,24.31721,24.31721,0,0,0,24.74277,2.6141l50.45823-23.22294L597.24628,292.207l-45.59477,32.40269a24.31723,24.31723,0,0,0-9.97006,23.28375A159.94811,159.94811,0,0,1,543.87,370.99474a159.82854,159.82854,0,0,1-2.18855,23.10134h0a24.31727,24.31727,0,0,0,9.36213,22.79739l42.85911,32.64585-41.03534,71.06705-50.33663-23.16213a24.31718,24.31718,0,0,0-25.59386,3.28283A166.02489,166.02489,0,0,1,436.935,523.70683a24.31722,24.31722,0,0,0-14.65112,20.12248l-4.985,55.01771H335.83624l-4.985-55.01771a24.31722,24.31722,0,0,0-14.65112-20.12248A192.836,192.836,0,0,1,275.408,500.05834a24.31717,24.31717,0,0,0-24.682-2.6141l-50.33663,23.16213-40.85292-70.33754Z"/><path class="cls-2" d="M378.39136,475.68032A104.44243,104.44243,0,1,0,273.94893,371.23789,103.34814,103.34814,0,0,0,376.19109,475.68032Q377.29121,475.692,378.39136,475.68032Zm0-160.25044a55.808,55.808,0,1,1-55.808,55.808h0a55.20006,55.20006,0,0,1,54.58537-55.808Q377.78,315.4231,378.39136,315.42988Z"/></svg>