<svg xmlns="http://www.w3.org/2000/svg" viewBox="0 0 100 125"><defs><style>.cls-1{fill:#fff;}</style></defs><g id="Layer_1" data-name="Layer 1"><path class="cls-1" d="M97.19669,86.20763a6.52453,6.52453,0,0,0-3.4-4.2l-21-10.9a6.769,6.769,0,0,0-8.4,1.8l-6.4,8.1a65.15482,65.15482,0,0,1-15.1-11.4,61.64121,61.64121,0,0,1-11.5-15.4l8.1-6.3a6.769,6.769,0,0,0,1.8-8.4l-10.8-21a6.7072,6.7072,0,0,0-4.3-3.4,6.8884,6.8884,0,0,0-5.4.9l-13.2,8.9a11.12272,11.12272,0,0,0-5,10.2,58.12627,58.12627,0,0,0,1.5,10.9c3.5,13.4,11.9,27.3,23.6,39s25.6,20.1,39,23.6a56.88306,56.88306,0,0,0,10.9,1.5h.7a11.23085,11.23085,0,0,0,9.5-5.2l8.6-13.4A6.55346,6.55346,0,0,0,97.19669,86.20763Z"/><path class="cls-1" d="M59.6967,52.90763a5.22224,5.22224,0,0,0,3.8,1.6,5.06606,5.06606,0,0,0,3.8-1.6l8.5-8.5,8.5,8.5a5.22226,5.22226,0,0,0,3.8,1.6,5.06605,5.06605,0,0,0,3.8-1.6,5.37163,5.37163,0,0,0,0-7.6l-8.5-8.5,8.5-8.5a5.374,5.374,0,1,0-7.6-7.6l-8.5,8.5-8.5-8.5a5.374,5.374,0,0,0-7.6,7.6l8.5,8.5-8.5,8.5A5.3716,5.3716,0,0,0,59.6967,52.90763Z"/></g></svg>