<svg id="Layer_1" data-name="Layer 1" xmlns="http://www.w3.org/2000/svg" xmlns:xlink="http://www.w3.org/1999/xlink" viewBox="0 0 756.8 756.8"><defs><style>.cls-1{fill:url(#New_Gradient_Swatch_1);}.cls-2{fill:url(#New_Gradient_Swatch_1-2);}.cls-3{fill:url(#New_Gradient_Swatch_1-3);}.cls-4{fill:url(#New_Gradient_Swatch_1-4);}.cls-5{fill:url(#New_Gradient_Swatch_1-5);}.cls-6{fill:url(#New_Gradient_Swatch_1-6);}.cls-7{fill:url(#New_Gradient_Swatch_1-7);}</style><linearGradient id="New_Gradient_Swatch_1" x1="453.28002" y1="470.95997" x2="303.52006" y2="321.20001" gradientUnits="userSpaceOnUse"><stop offset="0" stop-color="#008c33"/><stop offset="1" stop-color="#12b942"/></linearGradient><linearGradient id="New_Gradient_Swatch_1-2" x1="691.13442" y1="464.29664" x2="555.36826" y2="328.53048" xlink:href="#New_Gradient_Swatch_1"/><linearGradient id="New_Gradient_Swatch_1-3" x1="208.4286" y1="470.95997" x2="58.66864" y2="321.20001" xlink:href="#New_Gradient_Swatch_1"/><linearGradient id="New_Gradient_Swatch_1-4" x1="364.81869" y1="301.38258" x2="152.45524" y2="89.01914" xlink:href="#New_Gradient_Swatch_1"/><linearGradient id="New_Gradient_Swatch_1-5" x1="604.33105" y1="703.15467" x2="397.41487" y2="496.23848" xlink:href="#New_Gradient_Swatch_1"/><linearGradient id="New_Gradient_Swatch_1-6" x1="148.27496" y1="645.23253" x2="118.3822" y2="615.33977" xlink:href="#New_Gradient_Swatch_1"/><linearGradient id="New_Gradient_Swatch_1-7" x1="148.60552" y1="560.17629" x2="118.49274" y2="530.06351" xlink:href="#New_Gradient_Swatch_1"/></defs><path class="cls-1" d="M474.21142,428.01715V364.14284a53.29114,53.29114,0,0,0-53.22858-53.22857h-85.1657a53.29128,53.29128,0,0,0-53.22857,53.22857v63.87431a53.29129,53.29129,0,0,0,53.22857,53.22857h85.1657A53.29114,53.29114,0,0,0,474.21142,428.01715Zm-149.04,0V364.14284a10.65969,10.65969,0,0,1,10.64571-10.64571h85.16572a10.65958,10.65958,0,0,1,10.64574,10.64571v63.87431a10.65956,10.65956,0,0,1-10.64574,10.64573h-85.1657A10.65968,10.65968,0,0,1,325.17141,428.01715Z"/><path class="cls-2" d="M623.25144,300.26856A95.92286,95.92286,0,0,0,527.44,396.08c5.03069,127.01424,186.61156,126.97855,191.62286-.00094A95.923,95.923,0,0,0,623.25144,300.26856Zm0,149.04a53.23015,53.23015,0,1,1,52.81949-52.81783A53.23022,53.23022,0,0,1,623.25144,449.30857Z"/><path class="cls-3" d="M176.13143,310.91427H90.96572a53.29126,53.29126,0,0,0-53.22857,53.22857v63.87431a53.29128,53.29128,0,0,0,53.22857,53.22857h85.16571A53.29113,53.29113,0,0,0,229.36,428.01715V364.14284A53.29113,53.29113,0,0,0,176.13143,310.91427ZM186.77714,428.0171a10.65955,10.65955,0,0,1-10.64571,10.64573H90.96572A10.65965,10.65965,0,0,1,80.32,428.0171V364.14284a10.65968,10.65968,0,0,1,10.64571-10.64571h85.16571a10.65955,10.65955,0,0,1,10.64571,10.64571Z"/><path class="cls-4" d="M346.46285,98H165.48572a53.29126,53.29126,0,0,0-53.22857,53.22857V247.04a21.29143,21.29143,0,1,0,42.58286,0h0V151.22857a10.65968,10.65968,0,0,1,10.64571-10.64571H346.46285a10.65955,10.65955,0,0,1,10.64571,10.64571v53.226l-8.51444-6.3859A21.29569,21.29569,0,0,0,323.041,232.13752l42.58214,31.93715a21.22344,21.22344,0,0,0,18.49552,3.38132c4.52916.20677,45.49269-32.82629,49.64134-35.31786a21.29379,21.29379,0,0,0-25.55395-34.069l-8.51461,6.38541v-53.226A53.29113,53.29113,0,0,0,346.46285,98Z"/><path class="cls-5" d="M678.61114,570.66865,636.0283,538.7315a21.528,21.528,0,0,0-25.10615-.26956c-.44771.26956-43.03059,32.20671-43.03059,32.20671A21.2958,21.2958,0,0,0,593.44614,604.736l8.51388-6.38482v42.58027a10.65953,10.65953,0,0,1-10.64573,10.64573H410.33716a10.65967,10.65967,0,0,1-10.64574-10.64573V545.12a21.29285,21.29285,0,0,0-42.58286.00073v95.81073A53.29126,53.29126,0,0,0,410.33711,694.16H591.31429a53.29112,53.29112,0,0,0,53.22857-53.22857V598.35116l8.51456,6.38591a21.29592,21.29592,0,0,0,25.55372-34.06842Z"/><path class="cls-6" d="M133.54858,608.99428a21.29606,21.29606,0,1,0,20.84721,20.84854A21.29177,21.29177,0,0,0,133.54858,608.99428Z"/><path class="cls-7" d="M133.54858,523.82856a21.29212,21.29212,0,1,0,0-.0024Z"/></svg>