<svg id="Layer_1" data-name="Layer 1" xmlns="http://www.w3.org/2000/svg" xmlns:xlink="http://www.w3.org/1999/xlink" viewBox="0 0 1075.68 1211.76"><defs><style>.cls-1{fill:url(#linear-gradient);}</style><linearGradient id="linear-gradient" x1="139.49845" y1="384.35211" x2="948.15945" y2="851.23276" gradientUnits="userSpaceOnUse"><stop offset="0" stop-color="#1cea0d"/><stop offset="1" stop-color="#00ad65"/></linearGradient></defs><path class="cls-1" d="M1032.91432,533.45289a185.84536,185.84536,0,0,0-34.2511-47.04114L722.11067,209.85932l-44.48456,44.48456-44.43719,44.444-.96723.96045-44.47784,44.48456-90.93066,90.9306L405.99763,525.986l-45.01208,45.01209h-.00678l-44.64013-44.647-.0542-.05395-44.15991-44.14649-1.24451-1.2445-44.22083-44.22083,45.01893-45.01892,271.63519-271.642.01355.02033,44.48462-44.48456L543.31331,31.062,227.19356,347.18183l-45.01892,45.01886-.43287.43293-45.01892,45.01214-.17584.17584,44.329,44.329.15564.15552.17578-.17578,44.2276,44.2207L270.88679,571.803l44.64014,44.647.75751.75733,44.69433,44.69433L362.027,662.95l44.34931,44.34937L451.8282,752.751l44.985,44.9851L361.44539,933.09718,225.61085,797.26271,180.15907,751.8108l-44.64013-44.64014-.22992.23011-.81842-.82508L89.84389,661.949,43.33021,615.43531,34.0099,606.115q-.345,5.66107-.34485,11.37646A184.28245,184.28245,0,0,0,87.95692,748.57789L316.96083,977.5818l.47339.47339,44.69433,44.69433.284.28406L406.89717,978.549,542.265,843.188h.00677l45.45185-45.45191,90.2948-90.30151,45.45172-45.45178.08118-.08118,1.04834,1.04834,43.957,43.957-.08106.08106L813.92732,752.44l.08118-.08118L859.96083,798.311l-.08124.0813L814.42787,843.844,543.31331,1114.96522l-.15552-.15564-36.74017,36.74023-7.74445,7.74439,44.64014,44.6333L858.91243,888.32862l45.45178-45.4519.08124-.08106,45.45172-45.44506.01355-.01343-32.16119-32.16138-12.32337-12.32324-.00677.00671-.00678.00672-45.95227-45.959L814.0085,661.4485l-43.957-43.957-1.04834-1.0415L632.70869,480.15528l-43.94354-43.95019-1.04828-1.04163v-.00671l45.47205-45.47211L656.1642,366.7093l21.5025-21.50244,18.12171-18.12171,27.28942-27.28949,44.99866,44.9986,90.83594,90.83594L904.36421,481.082l45.00537,45.00537.04743-.04748,34.27136,34.285L994.862,571.50538l57.72791,57.72778q.36512-5.83374.36511-11.7417A184.52315,184.52315,0,0,0,1032.91432,533.45289Zm-422.422,15.38965,22.62214,22.62231L678.0995,616.45,542.2718,752.28431H542.265l-44.98511-44.985L451.8282,661.84742l-44.3493-44.356-1.04163-1.0415L542.265,480.61524Zm-113.138,520.16357.35169.35181-44.48456,44.4845-.35175-.35169-45.28942-45.28943-.1623-.16235,44.48456-44.4845L723.02376,752.44l.16235.16235,45.28949,45.28931Zm536.56775-369.47827,1.15656,1.1565-3.59827,3.59838a185.76937,185.76937,0,0,1-32.81714,44.29517l-3.30749,3.30737L963.20125,719.731l-12.32337-12.3302.01355-.01355-5.74914-5.749L809.7812,566.2837l-1.04828-1.04834-44.4035-44.417-1.04834-1.03479L678.1808,434.68324l44.48456-44.47779.96716-.97393L854.18465,519.78358l1.0484,1.03479,43.957,43.957,45.45172,45.46533,40.78491,40.78491,5.16736,5.1742,39.04657,39.04663ZM88.126,570.03761,52.98207,534.9004c.06763-.16235.14868-.31787.23-.47339a185.73806,185.73806,0,0,1,34.74487-48.01526l3.13831-3.1383.58166-.575,43.13862,43.13867,1.346,1.33911,42.81391,42.80713,91.19439,91.19446,135.8346,135.83459.77783.77783-.58172.58167-44.5116,44.51843-.35852.35156-.77783-.77783L224.718,706.63636l-45.45178-45.45849-77.88354-77.88343L90.73,572.64161ZM315.89888,435.88722,632.01881,119.76734l45.45172,45.45179L632.986,209.70375,361.35072,481.339Z"/></svg>