<svg id="Layer_1" data-name="Layer 1" xmlns="http://www.w3.org/2000/svg" xmlns:xlink="http://www.w3.org/1999/xlink" viewBox="0 0 756.8 756.8"><defs><style>.cls-1{fill:url(#New_Gradient_Swatch_1);}.cls-2{fill:url(#New_Gradient_Swatch_1-2);}.cls-3{fill:url(#New_Gradient_Swatch_1-3);}.cls-4{fill:url(#New_Gradient_Swatch_1-4);}.cls-5{fill:url(#New_Gradient_Swatch_1-5);}.cls-6{fill:url(#New_Gradient_Swatch_1-6);}.cls-7{fill:url(#New_Gradient_Swatch_1-7);}.cls-8{fill:url(#New_Gradient_Swatch_1-8);}.cls-9{fill:url(#New_Gradient_Swatch_1-9);}</style><linearGradient id="New_Gradient_Swatch_1" x1="424.52389" y1="437.55352" x2="332.27616" y2="345.3058" gradientUnits="userSpaceOnUse"><stop offset="0" stop-color="#008c33"/><stop offset="1" stop-color="#12b942"/></linearGradient><linearGradient id="New_Gradient_Swatch_1-2" x1="437.79105" y1="247.01933" x2="320.07806" y2="129.30634" xlink:href="#New_Gradient_Swatch_1"/><linearGradient id="New_Gradient_Swatch_1-3" x1="308.42135" y1="321.45099" x2="165.29754" y2="178.32718" xlink:href="#New_Gradient_Swatch_1"/><linearGradient id="New_Gradient_Swatch_1-4" x1="234.20757" y1="449.9695" x2="116.05882" y2="331.82076" xlink:href="#New_Gradient_Swatch_1"/><linearGradient id="New_Gradient_Swatch_1-5" x1="273.90699" y1="569.38446" x2="200.76186" y2="496.23934" xlink:href="#New_Gradient_Swatch_1"/><linearGradient id="New_Gradient_Swatch_1-6" x1="436.72198" y1="653.55296" x2="319.00901" y2="535.83998" xlink:href="#New_Gradient_Swatch_1"/><linearGradient id="New_Gradient_Swatch_1-7" x1="591.81915" y1="604.84879" x2="448.69535" y2="461.72498" xlink:href="#New_Gradient_Swatch_1"/><linearGradient id="New_Gradient_Swatch_1-8" x1="640.90223" y1="450.87753" x2="522.75351" y2="332.72881" xlink:href="#New_Gradient_Swatch_1"/><linearGradient id="New_Gradient_Swatch_1-9" x1="557.46312" y1="286.46165" x2="484.31799" y2="213.31652" xlink:href="#New_Gradient_Swatch_1"/></defs><circle class="cls-1" cx="378.40002" cy="391.42966" r="65.22899"/><path class="cls-2" d="M361.30116,190.67636v95.627a5.67594,5.67594,0,0,0,5.69963,5.69963h23.43178a5.676,5.676,0,0,0,5.69963-5.69963v-95.627c19.632-6.96621,34.19773-25.96494,34.19773-48.13014a51.48773,51.48773,0,0,0-51.29658-51.29658c-27.86479,0-51.29657,23.43177-51.29657,51.29658C327.10345,164.71142,341.03584,183.07687,361.30116,190.67636Z"/><path class="cls-3" d="M202.34508,266.6713a53.9887,53.9887,0,0,0,22.1652-5.06633l67.76216,67.76216c1.89986,1.89987,5.69963,1.89987,8.23278,0l16.46556-16.46556c1.89986-1.89987,1.89986-5.69963,0-8.23278l-68.39545-67.76217a51.76442,51.76442,0,0,0,5.06633-22.16519,50.72618,50.72618,0,0,0-15.199-36.7309c-19.632-19.632-53.19645-19.632-72.82848,0-9.49937,10.766-15.199,23.43178-15.199,37.36419a50.72609,50.72609,0,0,0,15.199,36.73088A52.78673,52.78673,0,0,0,202.34508,266.6713Z"/><path class="cls-4" d="M177.64672,408.52853h95.627a5.67594,5.67594,0,0,0,5.69963-5.69963V379.39712a5.67593,5.67593,0,0,0-5.69963-5.69963h-95.627c-6.96621-19.632-25.96494-34.19773-48.13013-34.19773A51.48773,51.48773,0,0,0,78.22,390.79633c0,27.8648,23.43177,51.29658,51.29659,51.29658C151.68179,442.72624,170.04723,428.79385,177.64672,408.52853Z"/><path class="cls-5" d="M299.23863,453.49219c-1.89987-1.89987-5.69963-1.89987-8.23278,0L223.877,521.25435a51.38821,51.38821,0,1,0,15.199,82.96113,52.25554,52.25554,0,0,0,15.199-36.7309,53.9888,53.9888,0,0,0-5.06632-22.16519l67.76215-67.76216c1.89986-1.89987,1.89986-5.69963,0-8.23278Z"/><path class="cls-6" d="M395.49889,592.18294V496.556a5.67594,5.67594,0,0,0-5.69963-5.69963H366.36748a5.676,5.676,0,0,0-5.69963,5.69963v95.627c-19.632,6.96619-34.19773,25.96493-34.19773,48.13012a51.48772,51.48772,0,0,0,51.29657,51.29658c27.8648,0,51.29658-23.43176,51.29658-51.29658C429.6966,618.14792,415.76421,599.78246,395.49889,592.18294Z"/><path class="cls-7" d="M532.92308,521.25435l-67.76216-67.76216c-1.89987-1.89987-5.69963-1.89987-8.23278,0l-16.46556,16.46556c-1.89987,1.89987-1.89987,5.69963,0,8.23278l67.76213,67.76214a51.76441,51.76441,0,0,0-5.06635,22.16519,51.94536,51.94536,0,0,0,88.66082,36.7309c10.13269-10.13264,14.56566-23.43175,14.56566-37.36414a50.72629,50.72629,0,0,0-15.199-36.7309A52.42451,52.42451,0,0,0,532.92308,521.25435Z"/><path class="cls-8" d="M627.91675,340.13309c-22.16519,0-41.16392,14.56569-48.13012,34.19773H483.52635a5.67593,5.67593,0,0,0-5.69963,5.69963v23.43178a5.67594,5.67594,0,0,0,5.69963,5.69963H579.1533c6.9662,19.632,25.96493,34.19773,48.13012,34.19773A51.48772,51.48772,0,0,0,678.58,392.063C678.58,364.19817,655.78157,340.13309,627.91675,340.13309Z"/><path class="cls-9" d="M457.56142,329.36713c1.89987,1.89987,5.69963,1.89987,8.23278,0L533.55636,261.605a51.76428,51.76428,0,0,0,22.16519,5.06633,50.72627,50.72627,0,0,0,36.73091-15.199,52.25554,52.25554,0,0,0,15.199-36.73089,50.72614,50.72614,0,0,0-15.199-36.73089c-19.632-19.632-53.19647-19.632-72.82849,0a52.25559,52.25559,0,0,0-15.199,36.73089,53.98886,53.98886,0,0,0,5.06634,22.16519l-69.02877,67.76216c-1.89986,1.89986-1.89986,5.69963,0,8.23278Z"/></svg>