<svg id="Layer_1" data-name="Layer 1" xmlns="http://www.w3.org/2000/svg" xmlns:xlink="http://www.w3.org/1999/xlink" viewBox="0 0 41.52 40"><defs><style>.cls-1{fill:url(#linear-gradient);}.cls-2{fill:url(#linear-gradient-2);}.cls-3{fill:url(#linear-gradient-3);}</style><linearGradient id="linear-gradient" x1="2" y1="19.93962" x2="39.88" y2="19.93962" gradientUnits="userSpaceOnUse"><stop offset="0" stop-color="#1cea0d"/><stop offset="1" stop-color="#00ad65"/></linearGradient><linearGradient id="linear-gradient-2" x1="9.58002" y1="7.315" x2="32.29999" y2="7.315" xlink:href="#linear-gradient"/><linearGradient id="linear-gradient-3" x1="8.47998" y1="12.14999" x2="33.39001" y2="12.14999" xlink:href="#linear-gradient"/></defs><path class="cls-1" d="M38.62,36.35H34.83V23.06a20.78286,20.78286,0,0,0,3.03-1.28,3.11973,3.11973,0,0,0,1.62-3.63L34.83,1.92A1.26727,1.26727,0,0,0,33.57,1H8.31a1.26725,1.26725,0,0,0-1.26.92L2.47,18.13a3.0572,3.0572,0,0,0,1.6,3.65,21.65444,21.65444,0,0,0,2.98,1.27v13.3H3.26a1.265,1.265,0,0,0,0,2.53H38.62a1.265,1.265,0,0,0,0-2.53Zm-15.15,0H18.41V28.78h5.06Zm8.83,0H25.99V27.52a1.2633,1.2633,0,0,0-1.26-1.27H17.15a1.2633,1.2633,0,0,0-1.26,1.27v8.83H9.58V23.1c.37-.11.74-.25,1.11-.38a21.27476,21.27476,0,0,0,3.63-1.4,26.84491,26.84491,0,0,0,6.62,1.97,27.65573,27.65573,0,0,0,6.49-1.97,23.10878,23.10878,0,0,0,3.69,1.39c.39.13.78.27,1.18.39ZM27.97,18.78c-.03-.02-.06-.01-.1-.02a1.35228,1.35228,0,0,0-.36-.08h-.05a1.11719,1.11719,0,0,0-.48.1,31.39463,31.39463,0,0,1-6.04,1.98,29.39753,29.39753,0,0,1-6.15-1.97,1.29131,1.29131,0,0,0-1.02,0,23.43983,23.43983,0,0,1-5.46,1.97c-.01,0-.01.01-.02.01a10.53862,10.53862,0,0,1-3.11-1.26.56912.56912,0,0,1-.29-.67L9.26,3.53H32.62l4.37,15.3a.57458.57458,0,0,1-.3.67,11.54556,11.54556,0,0,1-3.12,1.26A25.21082,25.21082,0,0,1,27.97,18.78Z"/><path class="cls-2" d="M32.3,7.31a1.2633,1.2633,0,0,1-1.26,1.27H10.84a1.265,1.265,0,0,1,0-2.53h20.2A1.26113,1.26113,0,0,1,32.3,7.31Z"/><path class="cls-3" d="M33.39,12.15A1.26111,1.26111,0,0,1,32.13,13.41H9.74a1.26,1.26,0,1,1,0-2.52H32.13A1.26112,1.26112,0,0,1,33.39,12.15Z"/></svg>